<?xml version="1.0" encoding="utf-8"?>
<!-- Generator: Adobe Illustrator 17.1.0, SVG Export Plug-In . SVG Version: 6.00 Build 0)  -->
<!DOCTYPE svg PUBLIC "-//W3C//DTD SVG 1.1//EN" "http://www.w3.org/Graphics/SVG/1.1/DTD/svg11.dtd">
<svg version="1.1" id="Layer_1" xmlns="http://www.w3.org/2000/svg" xmlns:xlink="http://www.w3.org/1999/xlink" x="0px" y="0px"
	 viewBox="0 0 25.1 29.8" enable-background="new 0 0 25.1 29.8" xml:space="preserve" width='25' height='31'>
<g id="Shape_1">
	<g>
		<path fill-rule="evenodd" clip-rule="evenodd" fill="#262525" d="M25,21.5C25,21.5,24.9,21.5,25,21.5c-0.4-0.2-3.9-1.7-3.9-5.7
			c0-3.3,2.6-5,3.1-5.4l0,0c0.1,0,0.1-0.1,0.1-0.2c0-0.1,0-0.1,0-0.2c-1.8-2.6-4.6-3-5.7-3c-0.2,0-0.3,0-0.5,0
			c-1.3,0-2.6,0.5-3.6,0.9c-0.7,0.3-1.3,0.5-1.7,0.5c-0.5,0-1.1-0.2-1.8-0.5C10,7.6,9,7.1,7.8,7.1c0,0-0.1,0-0.1,0
			c-2.6,0-5.1,1.5-6.5,3.8c-2.6,4.4-0.9,11,1.9,15c1.4,2,2.9,3.8,4.9,3.8c0,0,0.1,0,0.1,0c0.9,0,1.6-0.3,2.3-0.6
			c0.7-0.3,1.5-0.6,2.7-0.6c1.1,0,1.9,0.3,2.6,0.6c0.7,0.3,1.4,0.6,2.4,0.6c2.2,0,3.6-2,4.8-3.7c1.3-1.8,1.9-3.5,2.1-4.2l0,0
			C25.1,21.7,25.1,21.6,25,21.5z M12.5,7.2c0.1,0,0.2,0,0.3,0c1.6,0,3.2-0.8,4.4-2.2c1.2-1.4,1.8-3.2,1.6-4.9c0-0.1-0.1-0.2-0.3-0.2
			c-1.6,0.1-3.5,1-4.6,2.3C13,3.4,12,5.2,12.3,7C12.3,7.1,12.4,7.2,12.5,7.2z"/>
	</g>
</g>
</svg>
