<?xml version="1.0" encoding="utf-8"?>
<!-- Generator: Adobe Illustrator 17.1.0, SVG Export Plug-In . SVG Version: 6.00 Build 0)  -->
<!DOCTYPE svg PUBLIC "-//W3C//DTD SVG 1.1//EN" "http://www.w3.org/Graphics/SVG/1.1/DTD/svg11.dtd">
<svg version="1.1" id="Layer_1" xmlns="http://www.w3.org/2000/svg" xmlns:xlink="http://www.w3.org/1999/xlink" x="0px" y="0px"
	 viewBox="0 0 85.1 94.3" enable-background="new 0 0 85.1 94.3" xml:space="preserve" width='25' height='28'>
<path id="path64" fill="#5CDADD" d="M1.7,1.5C0.6,2.6,0,4.3,0,6.6v81.1c0,2.3,0.6,4,1.7,5.2L2,93.1l45.7-45.4v-1.1L2,1.2L1.7,1.5z"
	/>
<path id="path78" fill="#FFCA96" d="M62.9,62.8L47.6,47.7v-1.1l15.2-15.1l0.3,0.2l18,10.2c5.1,2.9,5.1,7.7,0,10.6l-18,10.2
	L62.9,62.8L62.9,62.8z"/>
<path id="path88" fill="#DC68A1" d="M63.2,62.6L47.6,47.1L1.7,92.8c1.7,1.8,4.5,2,7.7,0.2L63.2,62.6"/>
<path id="path104" fill="#BDECC4" d="M63.2,31.7L9.4,1.2c-3.2-1.8-6-1.6-7.7,0.2l45.9,45.7L63.2,31.7z"/>
</svg>
